<?xml version="1.0" encoding="UTF-8"?>
<svg id="Vrstva_1" data-name="Vrstva 1" xmlns="http://www.w3.org/2000/svg" viewBox="0 0 350.58 386.39">
  <defs>
    <style>
      .cls-1 {
        fill: #ffffff;
        stroke-width: 0px;
      }
    </style>
  </defs>
  <path class="cls-1" d="M24.03,252.57l311.41-1.36c8.87-.04,15.87,3.77,15.07,8.2l-7.57,42.17c-.58,3.21-5.16,5.89-11.42,6.64-32.09,3.86-137.09,13.47-303.79-.41-6.81-.57-11.97-3.4-12.48-6.86l-6.05-40.29c-.65-4.34,6.15-8.05,14.83-8.09Z"/>
  <path class="cls-1" d="M164.04,308.59v71.27c0,3.65,2.99,6.59,6.64,6.53l12.9-.22c3.56-.06,6.42-2.96,6.42-6.53v-71.06c0-3.61-2.92-6.53-6.53-6.53h-12.9c-3.6,0-6.52,2.93-6.52,6.53Z"/>
  <path class="cls-1" d="M24.58,70.33c5.5,28.99,31.25,158.46,57.39,188.36.89,1.02,2.36,1.64,3.93,1.64h2.49c3.45,0,5.74-2.79,4.32-5.24-9.16-15.81-36.01-69.29-58.75-185.85-.28-1.42-1.57-2.59-3.32-3h0c-3.33-.78-6.56,1.41-6.05,4.1Z"/>
  <path class="cls-1" d="M329.2,70.72c-5.5,28.99-31.25,158.46-57.39,188.36-.89,1.02-2.36,1.64-3.93,1.64h-2.49c-3.45,0-5.74-2.79-4.32-5.24,9.16-15.81,36.01-69.29,58.75-185.85.28-1.42,1.57-2.59,3.32-3h0c3.33-.78,6.56,1.41,6.05,4.1Z"/>
  <path class="cls-1" d="M131.4,256.78c-4.78-20.89-29.02-128.83-31.26-181.72-.11-2.54,2.49-4.63,5.73-4.63h.19c2.98,0,5.47,1.79,5.71,4.11,2.38,22.63,14.57,132.71,30.8,180.29,1,2.92-1.9,5.76-5.77,5.64h0c-2.69-.08-4.94-1.62-5.41-3.69Z"/>
  <path class="cls-1" d="M222.93,254.43c4.78-20.89,29.02-128.83,31.26-181.72.11-2.54-2.49-4.63-5.73-4.63h-.19c-2.98,0-5.47,1.79-5.71,4.11-2.38,22.63-14.57,132.71-30.8,180.29-1,2.92,1.9,5.76,5.77,5.64h0c2.69-.08,4.94-1.62,5.41-3.69Z"/>
  <path class="cls-1" d="M176.63,66.07h0c3.15,0,5.71,1.98,5.76,4.44l3.53,187.98c.05,2.52-2.54,4.57-5.76,4.57h-1.54c-3.16,0-5.73-2-5.76-4.47l-1.99-187.98c-.03-2.5,2.56-4.55,5.76-4.55Z"/>
  <path class="cls-1" d="M0,75.76c0,11.43,6.75,19.71,13.59,16.68,19.72-8.73,64.94-21.31,160.51-19.97,0,0,113.96-2.45,158.17,18.18,6.88,3.21,13.73-5.09,13.73-16.61v-32.38c0-8-3.41-14.97-8.24-16.82-31.66-12.11-152.6-49.7-328.88.8C3.75,27.11,0,34.29,0,42.68v33.07Z"/>
</svg>